<svg width="800" height="800" viewBox="0 0 800 800" fill="none" xmlns="http://www.w3.org/2000/svg">
<path d="M299.25 730.25C296.125 730.25 294.25 729.625 291.75 728.375C280.5 720.875 227.375 681.5 271.75 603.375C283.625 582.125 286.75 565.25 282.375 551.5C277.375 535.875 261.125 529.625 261.125 529.625C253.625 526.5 249.875 517.75 253 510.25C255.5 504 260.5 500.25 266.75 500.25C268.625 500.25 270.5 500.875 272.375 501.5C274.875 501.5 301.125 512.75 311.75 540.875C319.875 563.375 315.5 589.625 298.625 619C267.375 674 300.5 698.375 307.375 702.75C314.25 706.5 316.75 715.875 313 723.375C309.25 728.375 303.625 730.25 299.25 730.25ZM400.5 697.125C397.375 697.125 395.5 696.5 393 695.25C370.5 682.125 338.625 641.5 374.25 577.75C384.875 558.375 388 542.75 383.625 530.875C379.25 517.125 364.875 511.5 364.875 511.5C356.75 508.375 353 500.25 356.125 492.125C358.625 485.875 363.625 482.125 369.875 482.125C371.75 482.125 373.625 482.75 375.5 483.375C381.75 485.875 403.625 495.875 412.375 520.875C419.875 542.125 416.125 566.5 400.5 593.375C370.5 647.125 406.75 669 408.625 669.625C411.75 671.5 414.25 674.625 415.5 678.375C416.75 682.125 416.125 686.5 414.25 690.25C410.5 695.25 404.875 697.125 400.5 697.125ZM193 697.125C189.875 697.125 188 696.5 185.5 695.25C163 682.125 131.125 641.5 166.75 577.75C177.375 558.375 180.5 542.75 176.125 530.875C171.75 517.125 157.375 511.5 157.375 511.5C149.25 508.375 145.5 500.25 148.625 492.125C151.125 485.875 156.125 482.125 162.375 482.125C164.25 482.125 166.125 482.75 168 483.375C174.25 485.875 196.125 496.5 204.875 520.875C212.375 542.125 208 566.5 193 594C163 647.75 199.25 669.625 201.125 670.25C204.25 672.125 206.75 675.25 208 679C209.25 682.75 208.625 687.125 206.75 690.875C203.625 695.25 197.375 697.125 193 697.125ZM573.625 641.5C568.625 641.5 564.875 639.625 561.75 636.5C558.625 633.375 556.75 629 556.75 624.625C556.75 617.75 561.125 611.5 567.375 608.375H568V574.625L536.125 592.75V593.375C536.125 598.375 534.25 604.625 528 607.75C525.5 609.625 522.375 610.25 519.25 610.25C513 610.25 507.375 607.125 504.875 602.125C502.375 597.75 501.75 593.375 503 589C504.25 584.625 506.75 580.875 511.125 579C513.625 577.125 516.75 576.5 519.25 576.5C522.375 576.5 525.5 577.125 528 579L556.75 562.75L528.625 546.5C524.875 547.75 521.75 548.375 519.25 548.375C516.125 548.375 513.625 547.75 511.125 546.5C503.625 541.5 500.5 530.875 504.875 523.375C508 518.375 513.625 515.25 519.875 515.25C523 515.25 526.125 515.875 528.625 517.75C533.625 520.875 536.75 525.875 536.75 532.125V532.75L568.625 550.875V517.125H568C561.75 514 557.375 507.75 557.375 500.875C557.375 491.5 564.875 484 574.25 484C579.25 484 583.625 485.875 586.75 489C589.875 492.125 591.75 496.5 591.75 500.875C591.75 506.5 588.625 512.125 583 515.25H581.125V547.75L608.625 532.125V531.5C608.625 526.5 610.5 520.25 616.75 517.125C619.25 515.25 622.375 514.625 625.5 514.625C631.75 514.625 637.375 517.75 639.875 522.75C642.375 527.125 643 531.5 641.75 535.875C640.5 540.25 638 544 633.625 545.875C631.125 547.75 628 548.375 625.5 548.375C622.375 548.375 619.25 547.75 616.75 545.875L588 562.125L616.125 578.375C619.875 577.125 623 576.5 625.5 576.5C628.625 576.5 631.125 577.125 633.625 578.375C641.125 583.375 644.25 594 639.875 601.5C636.75 606.5 631.125 609.625 624.875 609.625C621.75 609.625 618.625 609 616.125 607.125C611.125 604 608 599 608 592.75V592.125L581.125 577.125V609.625H581.75C587.375 612.125 590.5 617.75 590.5 624C590.5 634 583 641.5 573.625 641.5ZM118.625 444C71.125 444 33 405.875 33 358.375V154.625C33 107.125 71.125 69 118.625 69H682.375C729.875 69 768 107.125 768 154.625V358.375C768 405.875 729.875 444 682.375 444H118.625ZM109.875 106.5C87.375 106.5 69.25 125.25 69.25 149V366.5C69.25 389.625 87.375 409 109.875 409H690.5C713 409 731.125 390.25 731.125 366.5V149C731.125 125.875 713 106.5 690.5 106.5H109.875ZM126.75 350.25C118.625 350.25 111.75 343.375 111.75 335.25C111.75 327.125 118.625 320.25 126.75 320.25H659.875C668 320.25 674.875 327.125 674.875 335.25C674.875 343.375 668 350.25 659.875 350.25H126.75ZM126.75 287.125C118.625 287.125 111.75 280.25 111.75 272.125C111.75 264 118.625 257.125 126.75 257.125H659.875C668 257.125 674.875 264 674.875 272.125C674.875 280.25 668 287.125 659.875 287.125H126.75Z" fill="#f0f9ff"/>
<path d="M196.659 220.296C196.744 220.808 196.787 221.32 196.787 221.832C196.872 222.259 196.915 222.771 196.915 223.368C196.915 224.392 196.616 225.331 196.019 226.184C195.763 226.611 195.421 227.037 194.995 227.464C194.568 227.805 194.056 228.104 193.459 228.36C191.325 229.555 189.064 229.981 186.675 229.64C185.48 229.299 184.413 228.744 183.475 227.976C183.304 227.805 183.176 227.72 183.09 227.72C183.005 227.635 182.92 227.507 182.835 227.336C182.749 227.251 182.664 227.165 182.579 227.08C182.493 226.909 182.365 226.781 182.195 226.696C181.768 226.269 181.427 225.885 181.171 225.544C180.915 225.117 180.659 224.691 180.403 224.264C180.232 223.837 180.019 223.453 179.763 223.112C179.592 222.685 179.379 222.259 179.123 221.832C178.952 221.491 178.781 221.192 178.611 220.936C178.44 220.595 178.312 220.253 178.227 219.912C177.885 219.144 177.672 218.461 177.587 217.864L174.899 211.592C169.011 211.592 163.123 211.635 157.235 211.72C151.432 211.72 145.587 211.677 139.699 211.592L137.011 217.864C136.84 218.205 136.712 218.547 136.627 218.888C136.627 219.229 136.541 219.571 136.371 219.912C136.2 220.253 136.029 220.595 135.859 220.936C135.773 221.192 135.645 221.491 135.475 221.832C135.219 222.259 134.963 222.685 134.707 223.112C134.536 223.453 134.323 223.837 134.067 224.264C133.896 224.691 133.683 225.117 133.427 225.544C133.171 225.885 132.829 226.269 132.403 226.696C132.232 226.781 132.104 226.909 132.019 227.08C131.933 227.165 131.848 227.251 131.763 227.336C131.677 227.507 131.592 227.635 131.507 227.72C131.421 227.72 131.293 227.805 131.123 227.976C130.184 228.744 129.117 229.299 127.923 229.64C125.533 229.981 123.272 229.555 121.139 228.36C120.541 228.104 120.029 227.805 119.603 227.464C119.176 227.037 118.835 226.611 118.579 226.184C117.981 225.331 117.683 224.392 117.683 223.368C117.683 222.771 117.683 222.259 117.683 221.832C117.768 221.32 117.853 220.808 117.939 220.296C118.109 219.528 118.323 218.76 118.579 217.992C118.835 217.224 118.963 216.84 118.963 216.84L145.587 151.304L146.354 149.256C146.525 148.744 146.739 148.275 146.995 147.848C147.251 147.421 147.464 146.909 147.635 146.312C148.061 145.203 148.531 144.221 149.043 143.368C149.299 142.856 149.597 142.387 149.939 141.96C150.28 141.533 150.621 141.107 150.963 140.68C151.475 139.997 152.2 139.443 153.139 139.016C154.333 138.589 155.699 138.376 157.235 138.376C158.856 138.376 160.264 138.589 161.459 139.016C162.397 139.443 163.123 139.997 163.635 140.68C164.232 141.448 164.872 142.344 165.555 143.368C166.067 144.221 166.536 145.203 166.963 146.312C167.133 146.909 167.347 147.421 167.603 147.848C167.859 148.275 168.072 148.744 168.243 149.256L169.011 151.304L195.635 216.84C195.635 216.84 195.763 217.224 196.019 217.992C196.275 218.76 196.488 219.528 196.659 220.296ZM166.323 188.936C165.213 186.461 164.061 183.901 162.867 181.256C161.757 178.611 160.563 175.923 159.283 173.192C158.941 172.424 158.6 171.656 158.259 170.888C157.917 170.035 157.576 169.224 157.235 168.456C156.979 169.224 156.68 170.035 156.339 170.888C155.997 171.656 155.656 172.424 155.315 173.192C154.035 175.923 152.797 178.611 151.603 181.256C150.493 183.901 149.384 186.461 148.275 188.936L145.971 194.568H168.627L166.323 188.936ZM211.151 215.432L211.279 205.32L211.407 186.504C211.492 183.773 211.535 180.957 211.535 178.056C211.535 175.155 211.535 172.168 211.535 169.096C211.535 166.024 211.535 163.293 211.535 160.904C211.535 158.515 211.62 155.827 211.791 152.84V152.328C211.876 151.475 211.919 150.621 211.919 149.768C212.004 148.829 212.047 147.891 212.047 146.952C212.132 145.416 212.601 143.752 213.455 141.96C214.052 140.765 214.948 139.741 216.143 138.888C217.508 138.205 218.831 137.864 220.111 137.864C220.793 137.864 221.391 137.907 221.903 137.992C222.5 137.992 223.055 138.035 223.567 138.12C224.676 138.291 225.657 138.803 226.511 139.656C227.023 140.083 227.492 140.765 227.919 141.704C228.089 142.216 228.217 142.728 228.303 143.24C228.473 143.667 228.601 144.136 228.687 144.648C228.772 145.245 228.815 145.8 228.815 146.312C228.9 146.824 228.943 147.336 228.943 147.848C228.943 148.445 228.9 149 228.815 149.512C228.815 149.939 228.815 150.408 228.815 150.92V153.096L228.047 219.528V220.808C228.047 221.064 228.004 221.405 227.919 221.832C227.919 222.173 227.876 222.6 227.791 223.112C227.62 223.539 227.449 224.008 227.279 224.52C227.193 224.947 227.065 225.416 226.895 225.928C226.639 226.355 226.34 226.781 225.999 227.208C225.743 227.549 225.401 227.891 224.975 228.232C224.292 228.915 223.183 229.384 221.647 229.64C219.343 230.152 217.167 229.939 215.119 229C214.095 228.317 213.369 227.464 212.943 226.44C212.687 226.184 212.559 225.928 212.559 225.672C212.473 225.501 212.388 225.373 212.303 225.288C212.217 225.203 212.132 225.075 212.047 224.904C211.876 224.477 211.748 224.051 211.663 223.624C211.577 223.112 211.535 222.6 211.535 222.088C211.449 221.661 211.364 221.235 211.279 220.808C211.279 220.381 211.236 219.955 211.151 219.528C211.065 218.845 211.065 218.12 211.151 217.352V215.432ZM309.106 223.368C309.191 224.221 309.106 225.032 308.85 225.8C308.679 226.312 308.423 226.739 308.082 227.08C307.826 227.421 307.484 227.763 307.058 228.104C306.29 228.616 305.351 229.085 304.242 229.512C303.559 229.683 302.876 229.811 302.194 229.896C301.596 230.067 300.956 230.067 300.274 229.896C298.908 229.811 297.714 229.299 296.69 228.36C295.239 227.165 294.044 225.843 293.106 224.392C292.679 223.709 292.21 222.941 291.698 222.088C291.186 221.235 290.716 220.339 290.29 219.4L276.082 192.392C275.399 192.392 274.716 192.435 274.034 192.52C273.351 192.52 272.668 192.563 271.986 192.648C270.194 192.819 268.487 192.861 266.866 192.776C265.33 192.691 263.708 192.691 262.002 192.776H259.57V215.944C259.57 216.627 259.527 217.267 259.442 217.864C259.442 218.461 259.442 219.101 259.442 219.784C259.442 220.211 259.399 220.765 259.314 221.448C259.314 222.131 259.271 222.771 259.186 223.368C259.015 224.307 258.631 225.288 258.034 226.312C257.436 227.251 256.626 228.061 255.602 228.744C253.81 229.853 251.634 230.152 249.074 229.64C247.964 229.384 246.898 228.957 245.874 228.36C245.532 228.104 245.234 227.805 244.978 227.464C244.722 227.037 244.508 226.611 244.338 226.184C244.167 225.757 243.996 225.331 243.826 224.904C243.74 224.392 243.612 223.923 243.442 223.496C243.186 222.643 243.058 221.832 243.058 221.064V148.36C243.058 147.848 243.058 147.336 243.058 146.824C243.143 146.227 243.228 145.715 243.314 145.288C243.399 144.349 243.698 143.411 244.21 142.472C244.466 141.448 244.892 140.723 245.49 140.296C246.002 139.784 246.77 139.357 247.794 139.016C248.903 138.589 250.482 138.419 252.53 138.504C256.37 138.589 260.167 138.632 263.922 138.632C267.676 138.632 271.431 138.717 275.186 138.888C277.66 139.059 280.263 139.357 282.994 139.784C285.81 140.125 288.412 140.765 290.802 141.704C292.338 142.301 293.746 142.899 295.026 143.496C296.647 144.435 297.927 145.331 298.866 146.184C301.852 148.915 304.114 152.2 305.65 156.04C307.186 159.88 307.954 163.763 307.954 167.688C307.954 172.296 306.844 176.52 304.626 180.36C302.492 184.2 299.036 187.059 294.258 188.936C294.087 189.107 293.831 189.235 293.49 189.32C293.234 189.32 293.02 189.363 292.85 189.448L304.626 213.128L305.778 215.176C305.948 215.517 306.162 215.901 306.418 216.328C306.674 216.755 306.887 217.181 307.058 217.608C307.314 218.035 307.527 218.504 307.698 219.016C307.954 219.528 308.21 219.997 308.465 220.424C308.722 221.619 308.935 222.6 309.106 223.368ZM277.106 177.8C278.642 177.8 280.092 177.544 281.458 177.032C282.908 176.435 284.188 175.667 285.298 174.728C286.492 173.789 287.474 172.723 288.242 171.528C289.01 170.248 289.436 168.883 289.522 167.432C289.863 163.165 288.754 160.008 286.194 157.96C283.634 155.827 280.263 154.675 276.082 154.504C273.607 154.333 270.876 154.248 267.89 154.248C264.988 154.248 262.215 154.248 259.57 154.248C259.655 157.747 259.655 161.331 259.57 165C259.57 168.584 259.57 172.851 259.57 177.8H277.106ZM424.112 191.752C424.538 192.947 424.837 194.312 425.007 195.848C425.264 197.299 425.392 198.792 425.392 200.328C425.392 201.864 425.264 203.4 425.007 204.936C424.837 206.387 424.581 207.667 424.24 208.776C422.874 213.555 420.144 217.565 416.048 220.808C411.952 223.965 407.258 226.269 401.968 227.72C396.762 229.171 391.344 229.683 385.712 229.256C380.165 228.829 375.216 227.421 370.864 225.032C368.133 223.496 365.786 221.619 363.824 219.4C361.861 217.181 360.197 214.707 358.832 211.976C358.32 211.037 357.978 209.971 357.808 208.776C357.722 207.496 357.85 206.301 358.192 205.192C358.533 203.997 359.088 202.973 359.856 202.12C360.624 201.181 361.69 200.541 363.056 200.2C363.909 200.029 364.848 199.944 365.872 199.944C366.981 199.944 368.048 200.115 369.072 200.456C370.096 200.712 371.034 201.181 371.888 201.864C372.741 202.461 373.424 203.315 373.936 204.424C374.874 206.216 376.197 207.88 377.904 209.416C379.696 210.867 381.573 212.061 383.536 213C386.352 213.939 389.168 214.323 391.984 214.152C394.885 213.981 397.488 213.341 399.792 212.232C402.181 211.123 404.101 209.629 405.552 207.752C407.002 205.789 407.728 203.571 407.728 201.096C407.728 199.048 407.429 197.384 406.832 196.104C406.234 194.739 405.381 193.629 404.272 192.776C403.248 191.837 401.968 191.069 400.432 190.472C398.981 189.875 397.36 189.363 395.568 188.936C393.52 188.509 391.429 188.211 389.296 188.04C387.248 187.869 385.157 187.656 383.024 187.4C380.89 187.144 378.8 186.803 376.752 186.376C374.704 185.949 372.698 185.309 370.736 184.456C366.81 182.835 363.824 180.36 361.776 177.032C359.728 173.704 358.49 170.12 358.064 166.28C357.722 162.44 358.192 158.643 359.472 154.888C360.752 151.048 362.8 147.763 365.616 145.032C368.346 142.557 371.589 140.808 375.344 139.784C379.184 138.675 383.408 138.035 388.016 137.864C390.576 137.779 393.136 137.864 395.696 138.12C398.341 138.376 400.858 138.803 403.248 139.4C405.722 139.997 407.984 140.765 410.032 141.704C412.165 142.643 414 143.752 415.536 145.032C416.645 145.885 417.754 147.037 418.864 148.488C419.973 149.853 420.826 151.347 421.424 152.968C422.021 154.504 422.192 155.997 421.936 157.448C421.765 158.899 420.869 160.136 419.248 161.16C417.882 162.013 416.56 162.397 415.28 162.312C414.085 162.141 412.933 161.757 411.824 161.16C410.714 160.477 409.648 159.709 408.624 158.856C407.6 158.003 406.661 157.235 405.808 156.552C403.504 154.845 400.645 153.693 397.232 153.096C393.818 152.499 390.618 152.371 387.632 152.712C385.754 152.968 384.005 153.395 382.384 153.992C380.762 154.589 379.354 155.4 378.16 156.424C377.05 157.448 376.154 158.728 375.472 160.264C374.874 161.715 374.661 163.379 374.832 165.256C374.917 166.621 375.301 167.773 375.984 168.712C376.752 169.651 377.648 170.419 378.672 171.016C379.781 171.613 380.976 172.083 382.256 172.424C383.536 172.765 384.816 173.021 386.096 173.192C389.936 173.704 393.776 174.088 397.616 174.344C401.456 174.6 405.21 175.453 408.88 176.904C412.634 178.355 415.834 180.317 418.479 182.792C421.125 185.267 423.002 188.253 424.112 191.752ZM514.659 220.296C514.744 220.808 514.787 221.32 514.787 221.832C514.872 222.259 514.915 222.771 514.915 223.368C514.915 224.392 514.616 225.331 514.019 226.184C513.763 226.611 513.421 227.037 512.995 227.464C512.568 227.805 512.056 228.104 511.459 228.36C509.325 229.555 507.064 229.981 504.675 229.64C503.48 229.299 502.413 228.744 501.475 227.976C501.304 227.805 501.176 227.72 501.09 227.72C501.005 227.635 500.92 227.507 500.835 227.336C500.749 227.251 500.664 227.165 500.579 227.08C500.493 226.909 500.365 226.781 500.195 226.696C499.768 226.269 499.427 225.885 499.171 225.544C498.915 225.117 498.659 224.691 498.403 224.264C498.232 223.837 498.019 223.453 497.763 223.112C497.592 222.685 497.379 222.259 497.123 221.832C496.952 221.491 496.781 221.192 496.611 220.936C496.44 220.595 496.312 220.253 496.227 219.912C495.885 219.144 495.672 218.461 495.587 217.864L492.899 211.592C487.011 211.592 481.123 211.635 475.235 211.72C469.432 211.72 463.587 211.677 457.699 211.592L455.011 217.864C454.84 218.205 454.712 218.547 454.627 218.888C454.627 219.229 454.541 219.571 454.371 219.912C454.2 220.253 454.029 220.595 453.859 220.936C453.773 221.192 453.645 221.491 453.475 221.832C453.219 222.259 452.963 222.685 452.707 223.112C452.536 223.453 452.323 223.837 452.067 224.264C451.896 224.691 451.683 225.117 451.427 225.544C451.171 225.885 450.829 226.269 450.403 226.696C450.232 226.781 450.104 226.909 450.019 227.08C449.933 227.165 449.848 227.251 449.763 227.336C449.677 227.507 449.592 227.635 449.507 227.72C449.421 227.72 449.293 227.805 449.123 227.976C448.184 228.744 447.117 229.299 445.923 229.64C443.533 229.981 441.272 229.555 439.139 228.36C438.541 228.104 438.029 227.805 437.603 227.464C437.176 227.037 436.835 226.611 436.579 226.184C435.981 225.331 435.683 224.392 435.683 223.368C435.683 222.771 435.683 222.259 435.683 221.832C435.768 221.32 435.853 220.808 435.939 220.296C436.109 219.528 436.323 218.76 436.579 217.992C436.835 217.224 436.963 216.84 436.963 216.84L463.587 151.304L464.354 149.256C464.525 148.744 464.739 148.275 464.995 147.848C465.251 147.421 465.464 146.909 465.635 146.312C466.061 145.203 466.531 144.221 467.043 143.368C467.299 142.856 467.597 142.387 467.939 141.96C468.28 141.533 468.621 141.107 468.963 140.68C469.475 139.997 470.2 139.443 471.139 139.016C472.333 138.589 473.699 138.376 475.235 138.376C476.856 138.376 478.264 138.589 479.459 139.016C480.397 139.443 481.123 139.997 481.635 140.68C482.232 141.448 482.872 142.344 483.555 143.368C484.067 144.221 484.536 145.203 484.963 146.312C485.133 146.909 485.347 147.421 485.603 147.848C485.859 148.275 486.072 148.744 486.243 149.256L487.011 151.304L513.635 216.84C513.635 216.84 513.763 217.224 514.019 217.992C514.275 218.76 514.488 219.528 514.659 220.296ZM484.323 188.936C483.213 186.461 482.061 183.901 480.867 181.256C479.757 178.611 478.563 175.923 477.283 173.192C476.941 172.424 476.6 171.656 476.259 170.888C475.917 170.035 475.576 169.224 475.235 168.456C474.979 169.224 474.68 170.035 474.339 170.888C473.997 171.656 473.656 172.424 473.315 173.192C472.035 175.923 470.797 178.611 469.603 181.256C468.493 183.901 467.384 186.461 466.275 188.936L463.971 194.568H486.627L484.323 188.936ZM604.159 220.296C604.244 220.808 604.287 221.32 604.287 221.832C604.372 222.259 604.415 222.771 604.415 223.368C604.415 224.392 604.116 225.331 603.519 226.184C603.263 226.611 602.921 227.037 602.495 227.464C602.068 227.805 601.556 228.104 600.959 228.36C598.825 229.555 596.564 229.981 594.175 229.64C592.98 229.299 591.913 228.744 590.975 227.976C590.804 227.805 590.676 227.72 590.59 227.72C590.505 227.635 590.42 227.507 590.335 227.336C590.249 227.251 590.164 227.165 590.079 227.08C589.993 226.909 589.865 226.781 589.695 226.696C589.268 226.269 588.927 225.885 588.671 225.544C588.415 225.117 588.159 224.691 587.903 224.264C587.732 223.837 587.519 223.453 587.263 223.112C587.092 222.685 586.879 222.259 586.623 221.832C586.452 221.491 586.281 221.192 586.111 220.936C585.94 220.595 585.812 220.253 585.727 219.912C585.385 219.144 585.172 218.461 585.087 217.864L582.399 211.592C576.511 211.592 570.623 211.635 564.735 211.72C558.932 211.72 553.087 211.677 547.199 211.592L544.511 217.864C544.34 218.205 544.212 218.547 544.127 218.888C544.127 219.229 544.041 219.571 543.871 219.912C543.7 220.253 543.529 220.595 543.359 220.936C543.273 221.192 543.145 221.491 542.975 221.832C542.719 222.259 542.463 222.685 542.207 223.112C542.036 223.453 541.823 223.837 541.567 224.264C541.396 224.691 541.183 225.117 540.927 225.544C540.671 225.885 540.329 226.269 539.903 226.696C539.732 226.781 539.604 226.909 539.519 227.08C539.433 227.165 539.348 227.251 539.263 227.336C539.177 227.507 539.092 227.635 539.007 227.72C538.921 227.72 538.793 227.805 538.623 227.976C537.684 228.744 536.617 229.299 535.423 229.64C533.033 229.981 530.772 229.555 528.639 228.36C528.041 228.104 527.529 227.805 527.103 227.464C526.676 227.037 526.335 226.611 526.079 226.184C525.481 225.331 525.183 224.392 525.183 223.368C525.183 222.771 525.183 222.259 525.183 221.832C525.268 221.32 525.353 220.808 525.439 220.296C525.609 219.528 525.823 218.76 526.079 217.992C526.335 217.224 526.463 216.84 526.463 216.84L553.087 151.304L553.854 149.256C554.025 148.744 554.239 148.275 554.495 147.848C554.751 147.421 554.964 146.909 555.135 146.312C555.561 145.203 556.031 144.221 556.543 143.368C556.799 142.856 557.097 142.387 557.439 141.96C557.78 141.533 558.121 141.107 558.463 140.68C558.975 139.997 559.7 139.443 560.639 139.016C561.833 138.589 563.199 138.376 564.735 138.376C566.356 138.376 567.764 138.589 568.959 139.016C569.897 139.443 570.623 139.997 571.135 140.68C571.732 141.448 572.372 142.344 573.055 143.368C573.567 144.221 574.036 145.203 574.463 146.312C574.633 146.909 574.847 147.421 575.103 147.848C575.359 148.275 575.572 148.744 575.743 149.256L576.511 151.304L603.135 216.84C603.135 216.84 603.263 217.224 603.519 217.992C603.775 218.76 603.988 219.528 604.159 220.296ZM573.823 188.936C572.713 186.461 571.561 183.901 570.367 181.256C569.257 178.611 568.063 175.923 566.783 173.192C566.441 172.424 566.1 171.656 565.759 170.888C565.417 170.035 565.076 169.224 564.735 168.456C564.479 169.224 564.18 170.035 563.839 170.888C563.497 171.656 563.156 172.424 562.815 173.192C561.535 175.923 560.297 178.611 559.103 181.256C557.993 183.901 556.884 186.461 555.775 188.936L553.471 194.568H576.127L573.823 188.936ZM680.987 191.752C681.413 192.947 681.712 194.312 681.882 195.848C682.139 197.299 682.267 198.792 682.267 200.328C682.267 201.864 682.139 203.4 681.882 204.936C681.712 206.387 681.456 207.667 681.115 208.776C679.749 213.555 677.019 217.565 672.923 220.808C668.827 223.965 664.133 226.269 658.843 227.72C653.637 229.171 648.219 229.683 642.587 229.256C637.04 228.829 632.091 227.421 627.739 225.032C625.008 223.496 622.661 221.619 620.699 219.4C618.736 217.181 617.072 214.707 615.707 211.976C615.195 211.037 614.853 209.971 614.683 208.776C614.597 207.496 614.725 206.301 615.067 205.192C615.408 203.997 615.963 202.973 616.731 202.12C617.499 201.181 618.565 200.541 619.931 200.2C620.784 200.029 621.723 199.944 622.747 199.944C623.856 199.944 624.923 200.115 625.947 200.456C626.971 200.712 627.909 201.181 628.763 201.864C629.616 202.461 630.299 203.315 630.811 204.424C631.749 206.216 633.072 207.88 634.779 209.416C636.571 210.867 638.448 212.061 640.411 213C643.227 213.939 646.043 214.323 648.859 214.152C651.76 213.981 654.363 213.341 656.667 212.232C659.056 211.123 660.976 209.629 662.427 207.752C663.877 205.789 664.603 203.571 664.603 201.096C664.603 199.048 664.304 197.384 663.707 196.104C663.109 194.739 662.256 193.629 661.147 192.776C660.123 191.837 658.843 191.069 657.307 190.472C655.856 189.875 654.235 189.363 652.443 188.936C650.395 188.509 648.304 188.211 646.171 188.04C644.123 187.869 642.032 187.656 639.899 187.4C637.765 187.144 635.675 186.803 633.627 186.376C631.579 185.949 629.573 185.309 627.611 184.456C623.685 182.835 620.699 180.36 618.651 177.032C616.603 173.704 615.365 170.12 614.939 166.28C614.597 162.44 615.067 158.643 616.347 154.888C617.627 151.048 619.675 147.763 622.491 145.032C625.221 142.557 628.464 140.808 632.219 139.784C636.059 138.675 640.283 138.035 644.891 137.864C647.451 137.779 650.011 137.864 652.571 138.12C655.216 138.376 657.733 138.803 660.123 139.4C662.597 139.997 664.859 140.765 666.907 141.704C669.04 142.643 670.875 143.752 672.411 145.032C673.52 145.885 674.629 147.037 675.739 148.488C676.848 149.853 677.701 151.347 678.299 152.968C678.896 154.504 679.067 155.997 678.811 157.448C678.64 158.899 677.744 160.136 676.123 161.16C674.757 162.013 673.435 162.397 672.155 162.312C670.96 162.141 669.808 161.757 668.699 161.16C667.589 160.477 666.523 159.709 665.499 158.856C664.475 158.003 663.536 157.235 662.683 156.552C660.379 154.845 657.52 153.693 654.107 153.096C650.693 152.499 647.493 152.371 644.507 152.712C642.629 152.968 640.88 153.395 639.259 153.992C637.637 154.589 636.229 155.4 635.035 156.424C633.925 157.448 633.029 158.728 632.347 160.264C631.749 161.715 631.536 163.379 631.707 165.256C631.792 166.621 632.176 167.773 632.859 168.712C633.627 169.651 634.523 170.419 635.547 171.016C636.656 171.613 637.851 172.083 639.131 172.424C640.411 172.765 641.691 173.021 642.971 173.192C646.811 173.704 650.651 174.088 654.491 174.344C658.331 174.6 662.085 175.453 665.755 176.904C669.509 178.355 672.709 180.317 675.354 182.792C678 185.267 679.877 188.253 680.987 191.752Z" fill="#f0f9ff"/>
</svg>
